# xmcd CD database file
#
# Track frame offsets:
#	150
#	12665
#	24890
#	39042
#	52670
#	66597
#	79595
#	92715
#	106227
#	119435
#	133720
#	144995
#	156582
#	167490
#	179930
#	190880
#	203515
#	215582
#	229832
#	243597
#	257157
#	271037
#	285082
#	300052
#	315107
#
# Disc length: 4360 seconds
#
# Revision: 2
# Processed by: cddbd v1.5.2PL0 Copyright (c) Steve Scherf et al.
# Submitted via: CDex 1.51
#
DISCID=49110619
DTITLE=Blind Lemon Jefferson - Blind Lemon Jefferson
DYEAR=1929
DGENRE=Blues
TTITLE0=Jack O' Diamonds Blues
TTITLE1=Chock House Blues
TTITLE2=Stocking Feet Blues
TTITLE3=That Black Snake Moan
TTITLE4=Shuckin' Sugar Blues
TTITLE5=Rabbit Foot Blues
TTITLE6=Bad Luck Blues
TTITLE7=Broke And Hungry
TTITLE8=Easy Rider Blues
TTITLE9=Match Box Blues
TTITLE10=Rising High Water Blues
TTITLE11=Teddy Bear Blues
TTITLE12=Lonesome House Blues
TTITLE13=Sunshine Special
TTITLE14=Change My Luck Blues
TTITLE15=Prison Cell Blues
TTITLE16=Blind Lemon's Penitentiary Blues
TTITLE17=Lock Step Blues
TTITLE18=Hangman's Blues
TTITLE19=Mosquito Moan
TTITLE20=Southern Woman Blues
TTITLE21=Baker Shop Blues
TTITLE22=Pneumonia Blues
TTITLE23=Long Distance Moan
TTITLE24=That Growling Baby Blues
EXTD=YEAR: 1929
EXTT0=
EXTT1=
EXTT2=
EXTT3=
EXTT4=
EXTT5=
EXTT6=
EXTT7=
EXTT8=
EXTT9=
EXTT10=
EXTT11=
EXTT12=
EXTT13=
EXTT14=
EXTT15=
EXTT16=
EXTT17=
EXTT18=
EXTT19=
EXTT20=
EXTT21=
EXTT22=
EXTT23=
EXTT24=
PLAYORDER=
